<svg xmlns="http://www.w3.org/2000/svg">
<path d="M 281,421 281,423 282,424 282,428 283,429 283,432 284,433 284,436 285,437 285,439 286,440 286,442 287,443 287,445 288,446 288,448 289,449 289,451 290,452 290,453 291,454 291,456 292,457 292,459 293,460 293,461 294,462 294,464 295,465 295,466 296,467 296,469 297,470 297,471 298,472 298,474 299,475 299,477 300,478 300,479 306,479 305,478 305,477 304,476 304,474 303,473 303,472 302,471 302,470 301,469 301,468 300,467 300,466 299,465 299,464 298,463 298,461 297,460 297,459 296,458 296,457 295,456 295,455 294,454 294,453 293,452 293,451 292,450 292,447 291,446 291,444 290,443 290,442 289,441 289,438 288,437 288,435 287,434 287,433 286,432 286,430 285,429 285,428 284,427 284,426 283,425 283,424 282,423 282,422 Z" fill="none" stroke="black" />
<path d="M 0,404 Z" fill="none" stroke="black" />
<path d="M 241,257 241,259 242,259 243,258 243,257 Z" fill="none" stroke="black" />
<path d="M 202,211 202,214 Z" fill="none" stroke="black" />
<path d="M 204,150 204,151 203,152 203,156 202,157 202,164 203,165 203,179 203,172 204,171 204,163 205,162 205,158 204,157 204,155 205,154 205,153 204,152 Z" fill="none" stroke="black" />
<path d="M 142,139 141,140 140,140 142,140 143,141 148,141 149,140 156,140 155,139 Z" fill="none" stroke="black" />
<path d="M 51,138 52,139 52,140 59,147 61,147 62,146 64,146 65,147 74,147 75,146 93,146 94,145 98,145 99,146 104,146 105,145 109,145 110,144 123,144 124,143 126,143 127,142 128,142 129,143 130,143 131,142 133,142 133,141 134,140 133,139 132,139 131,138 Z" fill="none" stroke="black" />
<path d="M 538,134 Z" fill="none" stroke="black" />
<path d="M 545,133 545,134 546,134 547,133 Z" fill="none" stroke="black" />
<path d="M 627,128 626,129 606,129 605,130 599,130 598,131 598,133 599,134 599,136 601,138 604,138 605,139 628,139 629,140 630,140 631,141 639,141 639,128 635,128 634,129 630,129 629,128 Z" fill="none" stroke="black" />
<path d="M 568,128 568,129 567,130 566,130 565,131 563,131 562,132 554,132 553,133 552,133 552,134 553,135 562,135 563,136 564,136 565,135 566,135 567,134 567,133 568,132 568,131 569,130 568,129 Z" fill="none" stroke="black" />
<path d="M 149,116 148,117 147,117 145,119 145,125 149,129 150,129 151,130 152,130 153,131 157,131 158,130 160,130 163,127 163,126 164,125 164,121 160,117 157,117 156,116 Z" fill="none" stroke="black" />
<path d="M 0,79 0,81 1,81 2,82 4,82 5,83 5,89 4,90 4,91 3,92 3,93 2,94 2,95 0,97 0,224 1,223 3,223 4,222 8,222 9,221 10,221 13,218 15,218 16,219 18,219 19,218 22,218 23,217 23,216 24,215 24,212 25,211 25,207 26,206 26,204 27,203 27,202 28,201 28,197 29,196 29,194 28,193 26,193 23,190 24,189 24,188 23,188 22,189 20,187 21,186 21,185 23,183 24,184 26,184 26,176 28,174 30,174 31,173 31,170 32,169 32,168 33,167 33,166 34,165 34,164 35,163 35,159 36,158 36,157 37,156 38,156 39,155 40,155 41,154 41,153 42,152 42,151 43,150 43,149 44,148 44,146 45,145 45,142 46,141 46,138 48,136 48,134 47,133 47,126 49,124 49,122 50,121 50,119 51,118 51,117 53,115 54,115 56,113 56,112 57,111 56,110 56,108 54,106 54,105 53,104 53,102 56,99 57,99 58,98 64,98 64,97 63,96 60,96 58,94 57,94 56,93 52,93 51,92 44,92 43,91 42,91 41,90 40,90 39,89 37,89 36,88 31,88 30,87 28,87 27,86 25,86 24,85 21,85 20,84 18,84 16,82 15,82 14,81 13,81 12,80 10,80 9,79 Z" fill="none" stroke="black" />
<path d="M 566,72 565,73 564,73 563,74 563,77 562,78 560,78 559,79 557,79 556,80 555,80 553,82 552,82 552,83 550,85 550,90 552,92 553,92 554,93 555,93 556,94 556,98 557,99 558,98 560,98 562,100 562,102 563,103 563,105 564,106 564,108 565,109 565,112 566,113 566,116 567,117 567,121 568,122 568,125 568,122 569,121 569,118 568,117 568,108 567,107 567,104 566,103 566,99 565,98 565,93 567,91 568,91 569,90 569,89 570,88 570,86 571,85 571,84 570,83 570,81 569,80 569,79 568,78 568,76 569,75 568,74 568,73 567,73 Z" fill="none" stroke="black" />
<path d="M 633,60 635,60 Z" fill="none" stroke="black" />
<path d="M 203,0 203,1 204,2 204,6 205,7 205,9 206,10 206,13 207,14 207,17 208,18 208,21 209,22 209,25 210,26 210,29 211,30 211,34 212,35 212,37 214,39 214,42 213,43 213,44 212,45 212,46 209,49 209,50 206,53 206,54 205,55 205,56 204,57 204,59 203,60 203,64 202,65 202,70 201,71 201,85 202,86 202,124 203,125 203,139 204,140 204,143 205,143 205,142 206,141 206,139 207,138 207,135 208,134 208,132 209,131 209,129 210,128 210,123 211,122 211,119 212,118 212,100 213,99 213,97 218,92 221,92 222,93 223,93 224,94 226,94 227,95 229,95 233,99 233,100 234,101 234,103 235,104 235,105 236,106 236,107 237,108 239,108 240,109 242,109 244,111 246,111 248,113 248,117 242,123 241,123 238,126 237,126 234,129 233,129 223,139 223,140 222,141 222,142 220,144 220,160 221,161 221,163 222,164 222,166 223,167 223,169 224,170 224,171 225,172 225,173 226,174 226,175 227,176 227,177 228,178 228,181 229,182 229,184 230,185 230,186 231,187 231,189 232,190 232,193 231,194 231,196 230,197 230,199 229,200 229,202 228,203 228,209 227,210 227,211 226,212 226,214 227,215 227,217 228,218 228,224 229,225 229,227 231,229 234,229 235,228 238,228 239,227 242,227 243,226 245,226 246,227 247,227 250,230 252,230 254,232 254,233 255,234 255,238 256,239 256,241 257,242 257,255 256,256 256,261 257,262 257,264 256,265 256,266 253,269 253,270 252,271 245,271 245,272 244,273 244,274 245,275 245,276 242,279 242,281 241,282 241,283 240,284 239,284 238,285 236,285 235,284 234,284 231,281 231,280 228,277 228,276 227,275 227,274 226,273 226,272 225,271 225,269 224,268 224,267 223,266 223,265 222,264 222,263 221,262 221,261 220,260 220,259 219,258 219,256 218,255 218,253 217,252 217,250 216,249 216,246 215,245 215,244 213,242 213,241 212,240 212,238 213,237 213,235 212,234 210,236 210,237 208,239 208,240 205,243 202,243 201,242 200,242 197,239 197,238 195,236 195,235 194,235 193,234 192,234 191,235 165,235 164,236 163,235 149,235 148,236 128,236 127,235 92,235 91,234 88,234 87,235 84,235 83,234 32,234 31,233 23,233 22,234 22,238 21,239 21,241 20,242 20,245 19,246 19,248 18,249 18,251 17,252 17,254 16,255 16,257 15,258 15,260 14,261 14,262 13,263 13,265 12,266 12,269 11,270 11,274 10,275 10,277 9,278 9,284 8,285 8,289 7,290 7,294 6,295 6,298 5,299 5,300 3,302 3,303 1,305 0,305 0,323 6,323 7,324 8,324 10,326 11,326 16,331 15,332 11,332 10,331 4,331 3,330 1,330 0,329 0,337 10,337 11,338 13,338 14,339 15,339 16,340 18,340 19,341 20,341 21,342 22,342 25,345 25,350 24,351 24,354 23,355 23,357 22,358 22,361 21,362 21,365 20,366 20,368 19,369 19,372 18,373 18,375 17,376 17,380 16,381 16,384 15,385 15,387 14,388 14,390 13,391 13,392 12,393 12,394 11,395 11,397 12,398 12,404 11,405 11,406 10,407 10,416 9,417 9,420 8,421 8,422 7,423 7,424 6,425 6,426 5,427 5,429 4,430 4,432 3,433 3,437 4,438 4,441 2,443 0,443 0,479 284,479 284,476 283,475 283,474 282,473 282,471 281,470 281,469 280,468 280,466 279,465 279,464 278,463 278,461 277,460 277,459 276,458 276,456 275,455 275,453 274,452 274,451 273,450 273,448 272,447 272,445 271,444 271,443 270,442 270,440 269,439 269,438 268,437 268,435 267,434 267,433 266,432 266,430 265,429 265,428 264,427 264,425 263,424 263,422 262,421 262,419 261,418 261,415 260,414 260,412 259,411 259,408 258,407 258,406 257,405 257,404 256,403 256,402 255,401 255,398 257,396 258,396 259,397 262,397 263,398 265,398 266,399 268,399 269,400 271,400 272,401 273,401 274,402 276,402 277,403 279,403 280,404 283,404 284,405 288,405 289,406 294,406 295,407 303,407 304,408 307,408 308,409 312,409 313,410 315,410 318,413 318,414 319,414 321,416 321,417 322,418 322,419 327,424 327,425 328,426 328,427 329,428 328,429 322,429 321,428 320,428 318,426 316,426 315,425 314,425 313,424 311,424 309,422 308,422 307,421 305,421 304,420 302,420 301,419 299,419 298,418 297,418 296,417 295,417 293,415 292,415 291,414 288,414 287,413 286,413 285,414 285,416 286,416 287,417 289,417 290,418 296,418 302,424 303,424 306,427 307,427 310,430 311,430 315,434 316,434 320,438 321,438 326,443 327,443 330,446 331,446 332,447 333,447 340,454 340,455 341,456 341,459 343,461 344,461 348,465 348,467 349,468 349,474 348,475 347,475 348,475 349,476 349,477 350,478 350,479 639,479 639,205 635,205 634,206 619,206 618,207 611,207 610,208 603,208 602,209 601,209 601,210 602,211 602,213 604,215 606,215 607,216 608,216 610,218 610,221 608,223 607,223 606,224 604,224 603,225 602,225 601,226 599,226 598,227 595,227 594,228 587,228 586,229 570,229 569,230 566,230 565,229 563,229 562,230 538,230 537,231 527,231 526,232 490,232 489,233 480,233 479,234 473,234 473,235 470,238 468,238 467,239 466,239 465,240 463,240 462,239 461,239 460,238 460,237 459,236 459,235 458,234 448,234 448,235 447,236 447,237 446,238 445,238 444,239 436,239 435,240 433,240 432,239 431,239 430,238 429,238 427,236 427,234 426,233 424,233 423,232 419,232 418,231 415,231 414,230 412,230 411,229 404,229 403,228 401,228 400,229 385,229 384,228 384,226 385,225 388,225 389,226 390,226 395,221 395,220 396,219 396,214 395,213 395,200 394,199 394,195 393,194 393,188 392,187 392,175 391,174 391,168 390,167 390,166 389,165 388,165 385,162 385,161 384,160 384,159 383,158 383,156 382,155 382,154 381,153 381,152 380,151 380,150 379,149 379,135 378,134 378,128 377,127 377,124 378,123 378,120 379,119 379,114 380,113 379,112 379,106 378,105 378,95 377,94 377,89 376,88 376,86 375,85 375,83 374,82 374,81 373,80 373,79 372,78 372,77 371,76 371,75 370,74 370,73 369,72 369,70 368,69 368,68 367,67 367,66 366,65 366,64 365,63 365,62 364,61 364,59 363,58 363,56 362,55 362,53 357,48 357,47 355,45 355,44 354,43 354,42 353,41 353,40 354,39 355,40 359,40 360,41 385,41 386,40 443,40 444,39 518,39 519,38 523,38 524,39 528,39 529,38 585,38 586,39 588,39 589,38 595,38 596,39 607,39 608,38 610,38 611,39 637,39 638,38 639,38 639,0 Z" fill="none" stroke="black" />
</svg>